# AST/ASF file generated using VICON BodyLanguage
# -----------------------------------------------
:version 1.10
:name VICON
:units
  mass 1.0
  length 0.45
  angle deg
:documentation
   .ast/.asf automatically generated from VICON data using
   VICON BodyBuilder and BodyLanguage model FoxedUp or BRILLIANT.MOD
:root
   order TX TY TZ RX RY RZ
   axis XYZ
   position 0 0 0  
   orientation 0 0 0 
:bonedata
  begin
     id 1 
     name lhipjoint
     direction 0.710188 -0.616876 0.339259 
     length 2.5669 
     axis 0 0 0  XYZ
  end
  begin
     id 2 
     name lfemur
     direction 0.34202 -0.939693 0  
     length 7.12796  
     axis 0 0 20  XYZ
    dof rx ry rz
    limits (-160.0 20.0)
           (-70.0 70.0)
           (-60.0 70.0)
  end
  begin
     id 3 
     name ltibia
     direction 0.34202 -0.939693 0   
     length 7.58108   
     axis 0 0 20   XYZ
    dof rx
    limits (-10.0 170.0)
  end
  begin
     id 4 
     name lfoot
     direction 0.0669471 -0.183936 0.980656   
     length 2.17365   
     axis -90 7.62852e-016 20   XYZ
    dof rx rz
    limits (-45.0 90.0)
           (-70.0 20.0)
  end
  begin
     id 5 
     name ltoes
     direction 1.53508e-011 -4.21705e-011 1   
     length 1.09427   
     axis -90 7.62852e-016 20   XYZ
    dof rx
    limits (-90.0 20.0)
  end
  begin
     id 6 
     name rhipjoint
     direction -0.700191 -0.625589 0.34405   
     length 2.53115  
     axis 0 0 0  XYZ 
  end
  begin
     id 7 
     name rfemur
     direction -0.34202 -0.939693 0   
     length 7.33006   
     axis 0 0 -20   XYZ
    dof rx ry rz
    limits (-160.0 20.0)
           (-70.0 70.0)
           (-70.0 60.0)
  end
  begin
     id 8 
     name rtibia
     direction -0.34202 -0.939693 0   
     length 7.64926   
     axis 0 0 -20   XYZ
    dof rx
    limits (-10.0 170.0)
 end
 begin
     id 9 
     name rfoot
     direction -0.0688927 -0.189281 0.979503   
     length 2.20493  
     axis -90 -7.62852e-016 -20   XYZ
    dof rx rz
    limits (-45.0 90.0)
           (-20.0 70.0)
  end
  begin
     id 10 
     name rtoes
     direction -1.53567e-011 -4.21933e-011 1   
     length 1.10919   
     axis -90 -7.62852e-016 -20   XYZ
    dof rx
    limits (-90.0 20.0)
  end
  begin
     id 11 
     name lowerback
     direction -0.0167868 0.989873 -0.140959   
     length 2.14596   
     axis 0 0 0   XYZ
    dof rx ry rz
    limits (-20.0 45.0)
           (-30.0 30.0)
           (-30.0 30.0)
  end
  begin
     id 12 
     name upperback
     direction 0.0129109 0.998033 0.0613525   
     length 2.10457   
     axis 0 0 0   XYZ
    dof rx ry rz
    limits (-20.0 45.0)
           (-30.0 30.0)
           (-30.0 30.0)
  end
  begin
     id 13 
     name thorax
     direction 0.0177047 0.991119 0.131797   
     length 2.17652   
     axis 0 0 0   XYZ
    dof rx ry rz
    limits (-20.0 45.0)
           (-30.0 30.0)
           (-30.0 30.0)
  end
  begin
     id 14 
     name lowerneck
     direction -0.0336893 0.997548 0.0613464   
     length 1.8912   
     axis 0 0 0   XYZ
    dof rx ry rz
    limits (-20.0 45.0)
           (-30.0 30.0)
           (-30.0 30.0)
  end
  begin
     id 15 
     name upperneck
     direction 0.0435909 0.997179 -0.0611028   
     length 1.8829   
     axis 0 0 0   XYZ
    dof rx ry rz
    limits (-20.0 45.0)
           (-30.0 30.0)
           (-30.0 30.0)
  end
  begin
     id 16
     name head
     direction 0.0175076 0.999444 -0.0283782  
     length 1.93197  
     axis 0 0 0   XYZ
    dof rx ry rz
    limits (-20.0 45.0)
           (-30.0 30.0)
           (-30.0 30.0)
  end
  begin
     id 17 
     name lclavicle
     direction 0.919164 0.389875 0.0559876  
     length 3.60004  
     axis 0 0 0   XYZ
    dof ry rz
    limits (-20.0 10.0)
           (0.0 20.0)
  end
  begin
     id 18 
     name lhumerus
     direction 1 -4.48958e-011 6.89191e-027   
     length 5.43301   
     axis 180 -30 -90   XYZ
    dof rx ry rz
    limits (-60.0 90.0)
           (-90.0 90.0)
           (-90.0 90.0)
  end
  begin
     id 19
     name lradius
     direction 1 -4.4897e-011 3.24727e-027   
     length 3.15936   
     axis 180 -30 -90   XYZ
    dof rx
    limits (-10.0 170.0)
  end
  begin
     id 20
     name lwrist
     direction 1 -4.4897e-011 9.00228e-027   
     length 1.57968   
     axis -6.29373e-015 90 90   XYZ
    dof ry
    limits (-180.0 0.0)
 end
  begin
     id 21 
     name lhand
     direction 1 -4.48968e-011 1.80042e-026   
     length 0.712827   
     axis -1.14882e-014 90 90   XYZ
    dof rx rz
    limits (-90.0 90.0)
           (-45.0 45.0)
  end
  begin
     id 22 
     name lfingers
     direction 1 -4.49019e-011 3.60267e-026   
     length 0.574699   
     axis -2.29769e-014 90 90   XYZ
    dof rx
    limits (0.0 90.0)
  end
  begin
     id 23
     name lthumb
     direction 0.707107 -6.3498e-011 0.707107   
     length 0.825157   
     axis -90 45 5.37419e-014   XYZ
    dof rx rz
    limits (-45.0 45.0)
           (-45.0 45.0)
  end
  begin
     id 24 
     name rclavicle
     direction -0.890334 0.455305 -0.00132111   
     length 3.51494  
     axis 0 0 0   XYZ 
    dof ry rz
    limits (-10.0 20.0)
           (-20.0 0.0)
  end
  begin
     id 25 
     name rhumerus
     direction -1 -4.48967e-011 5.07175e-028  
     length 5.34194   
     axis 180 30 90   XYZ
    dof rx ry rz
    limits (-90.0 60.0)
           (-90.0 90.0)
           (-90.0 90.0)
  end
  begin
     id 26 
     name rradius
     direction -1 -4.48955e-011 3.30467e-027   
     length 3.19351   
     axis 180 30 90   XYZ
    dof rx
    limits (-10.0 170.0)
  end
  begin
     id 27 
     name rwrist
     direction -1 -4.48968e-011 9.00208e-027   
     length 1.59676   
     axis -6.29373e-015 -90 -90   XYZ
    dof ry
    limits (-180.0 0.0)
  end
  begin
     id 28
     name rhand
     direction -1 -4.49e-011 1.80099e-026   
     length 0.743862   
     axis -1.14882e-014 -90 -90   XYZ
    dof rx rz
    limits (-90.0 90.0)
           (-45.0 45.0)
  end
  begin
     id 29
     name rfingers
     direction -1 -4.49009e-011 3.6023e-026   
     length 0.599721   
     axis -2.29769e-014 -90 -90   XYZ
    dof rx
    limits (0.0 90.0)
  end
  begin
     id 30
     name rthumb
     direction -0.707107 -6.35025e-011 0.707107   
     length 0.861083   
     axis -90 -45 -5.37419e-014   XYZ
    dof rx rz
    limits (-45.0 45.0)
           (-45.0 45.0)
  end
:hierarchy
  begin
    root lhipjoint rhipjoint lowerback
    lhipjoint lfemur
    lfemur ltibia
    ltibia lfoot
    lfoot ltoes
    rhipjoint rfemur
    rfemur rtibia
    rtibia rfoot
    rfoot rtoes
    lowerback upperback
    upperback thorax
    thorax lowerneck lclavicle rclavicle
    lowerneck upperneck
    upperneck head
    lclavicle lhumerus
    lhumerus lradius
    lradius lwrist
    lwrist lhand lthumb
    lhand lfingers
    rclavicle rhumerus
    rhumerus rradius
    rradius rwrist
    rwrist rhand rthumb
    rhand rfingers
  end

#!OML:ASF H:\Martial Arts Walks\Project 1\Capture day 1\Session 1\male.ASF
:FULLY-SPECIFIED
:DEGREES
202
root -0.0847083 13.5931 -30.3172 11.4751 -25.7346 -13.3289
lowerback 6.46851 0.237049 4.03429
upperback -2.2198 0.927304 5.07122
thorax -5.98634 0.395577 2.93659
lowerneck -4.62464 -4.85508 -6.25856
upperneck 9.0101 -6.48063 4.7481
head 3.80269 -3.20639 2.1414
rclavicle -3.73653e-015 6.24184e-014
rhumerus -74.2885 25.0801 -96.7808
rradius 109.28
rwrist -48.0075
rhand -3.95778 -15.1111
rfingers 7.12502
rthumb 21.7945 -43.9039
lclavicle -3.73653e-015 6.24184e-014
lhumerus -0.419394 -19.0378 71.4543
lradius 37.2118
lwrist -28.1313
lhand -19.4414 26.9148
lfingers 7.12502
lthumb 6.87903 56.7831
rfemur 16.6171 -2.13069 13.4521
rtibia 29.8862
rfoot -26.0016 -33.5822
rtoes -27.1876
lfemur -72.0361 35.609 -11.9659
ltibia 83.2995
lfoot -14.0701 -3.64965
ltoes -3.61355
203
root -0.0860508 13.5931 -30.3178 11.4447 -25.7274 -13.321
lowerback 6.49594 0.239919 4.03197
upperback -2.2133 0.932538 5.06886
thorax -5.99528 0.398176 2.93479
lowerneck -4.8258 -4.45882 -5.94886
upperneck 9.22857 -5.95713 4.62975
head 3.85971 -2.94048 2.07915
rclavicle 6.03451e-014 -8.17502e-015
rhumerus -74.2723 25.0327 -96.754
rradius 109.27
rwrist -48.0038
rhand -3.92648 -15.1084
rfingers 7.12502
rthumb 21.8246 -43.8977
lclavicle 6.03451e-014 -8.17502e-015
lhumerus -0.389802 -19.0629 71.4453
lradius 37.1708
lwrist -28.1318
lhand -19.4545 26.9251
lfingers 7.12502
lthumb 6.86639 56.7937
rfemur 16.6371 -2.15629 13.4456
rtibia 29.8962
rfoot -25.9973 -33.6008
rtoes -27.1729
lfemur -71.9855 35.589 -11.9313
ltibia 83.2933
lfoot -14.079 -3.65836
ltoes -3.63234
204
root -0.0874398 13.5934 -30.3182 11.4278 -25.7149 -13.3189
lowerback 6.50693 0.242076 4.04325
upperback -2.21192 0.937105 5.06733
thorax -6.00004 0.399943 2.92633
lowerneck -5.00514 -4.02376 -5.64091
upperneck 9.4385 -5.38463 4.52616
head 3.91072 -2.65006 2.02525
rclavicle 2.00493e-015 1.89342e-014
rhumerus -74.2647 24.9818 -96.7314
rradius 109.258
rwrist -47.9966
rhand -3.90849 -15.1095
rfingers 7.12502
rthumb 21.8418 -43.8968
lclavicle 2.00493e-015 1.89342e-014
lhumerus -0.3598 -19.0837 71.4402
lradius 37.1188
lwrist -28.1533
lhand -19.4597 26.9274
lfingers 7.12502
lthumb 6.86136 56.7962
rfemur 16.6446 -2.18868 13.4449
rtibia 29.9063
rfoot -25.9912 -33.6191
rtoes -27.1163
lfemur -71.9474 35.5625 -11.8942
ltibia 83.2876
lfoot -14.0884 -3.6693
ltoes -3.6539
205
root -0.0887152 13.5936 -30.3183 11.426 -25.7018 -13.3295
lowerback 6.50284 0.246251 4.07692
upperback -2.21364 0.945397 5.067
thorax -5.99927 0.402723 2.90614
lowerneck -5.14208 -3.56017 -5.35229
upperneck 9.62629 -4.77692 4.44792
head 3.94968 -2.34227 1.98531
rclavicle 1.462e-014 5.1684e-014
rhumerus -74.2624 24.9225 -96.7103
rradius 109.244
rwrist -47.983
rhand -3.88205 -15.1087
rfingers 7.12502
rthumb 21.8672 -43.8931
lclavicle 1.462e-014 5.1684e-014
lhumerus -0.325787 -19.0989 71.44
lradius 37.0574
lwrist -28.1926
lhand -19.4525 26.9254
lfingers 7.12502
lthumb 6.86839 56.794
rfemur 16.6401 -2.22366 13.454
rtibia 29.9152
rfoot -25.9811 -33.6376
rtoes -27.0116
lfemur -71.9207 35.535 -11.8465
ltibia 83.2842
lfoot -14.0983 -3.67811
ltoes -3.716
206
root -0.089894 13.594 -30.318 11.4391 -25.6925 -13.3463
lowerback 6.48169 0.252249 4.1243
upperback -2.21778 0.956173 5.06756
thorax -5.99116 0.406253 2.87888
lowerneck -5.22599 -3.08662 -5.08303
upperneck 9.76972 -4.15651 4.3776
head 3.96858 -2.02913 1.95268
rclavicle -3.6199e-014 -4.83544e-014
rhumerus -74.2648 24.8613 -96.6897
rradius 109.231
rwrist -47.9698
rhand -3.84935 -15.1036
rfingers 7.12502
rthumb 21.8986 -43.8844
lclavicle -3.6199e-014 -4.83544e-014
lhumerus -0.290197 -19.0978 71.4463
lradius 36.9888
lwrist -28.2457
lhand -19.4458 26.9185
lfingers 7.12502
lthumb 6.87478 56.7868
rfemur 16.6211 -2.25706 13.4669
rtibia 29.922
rfoot -25.9649 -33.6593
rtoes -26.8493
lfemur -71.9062 35.5083 -11.7958
ltibia 83.2818
lfoot -14.1099 -3.68054
ltoes -3.83289
207
root -0.0908404 13.5942 -30.3177 11.4578 -25.6934 -13.3745
lowerback 6.45692 0.261431 4.19086
upperback -2.21797 0.972231 5.0675
thorax -5.97659 0.411692 2.83953
lowerneck -5.31247 -2.61721 -4.8351
upperneck 9.5706 -3.51192 4.13883
head 4.31402 -1.72834 2.07856
rclavicle 2.1624e-014 -6.68413e-015
rhumerus -74.2654 24.7971 -96.6699
rradius 109.218
rwrist -47.959
rhand -3.80119 -15.0903
rfingers 7.12502
rthumb 21.9449 -43.8656
lclavicle 2.1624e-014 -6.68413e-015
lhumerus -0.247037 -19.0814 71.4526
lradius 36.9168
lwrist -28.3044
lhand -19.4404 26.9145
lfingers 7.12502
lthumb 6.88007 56.7827
rfemur 16.5984 -2.28202 13.4868
rtibia 29.9258
rfoot -25.9409 -33.6863
rtoes -26.623
lfemur -71.8892 35.4884 -11.7289
ltibia 83.2808
lfoot -14.1241 -3.67617
ltoes -3.98573
208
root -0.0916513 13.5943 -30.3173 11.477 -25.7059 -13.4045
lowerback 6.43607 0.274234 4.2614
upperback -2.21569 0.993535 5.06667
thorax -5.96167 0.419571 2.79653
lowerneck -5.30643 -2.14713 -4.56509
upperneck 9.61067 -2.8961 4.05374
head 4.2839 -1.41852 2.03466
rclavicle -5.15505e-014 1.49089e-016
rhumerus -74.2671 24.7297 -96.6487
rradius 109.21
rwrist -47.9534
rhand -3.76872 -15.0702
rfingers 7.12502
rthumb 21.976 -43.8419
lclavicle -5.15505e-014 1.49089e-016
lhumerus -0.200842 -19.0509 71.4608
lradius 36.8479
lwrist -28.3616
lhand -19.4337 26.9112
lfingers 7.12502
lthumb 6.88654 56.7792
rfemur 16.5735 -2.29489 13.507
rtibia 29.928
rfoot -25.9175 -33.7207
rtoes -26.3241
lfemur -71.8655 35.4734 -11.6539
ltibia 83.2785
lfoot -14.14 -3.65888
ltoes -4.16634
209
root -0.0924009 13.5944 -30.3171 11.4964 -25.729 -13.4311
lowerback 6.42209 0.291211 4.32809
upperback -2.21281 1.02049 5.06422
thorax -5.9501 0.430349 2.75336
lowerneck -5.27273 -1.68578 -4.29839
upperneck 9.60605 -2.29172 3.97023
head 4.23562 -1.11444 1.99014
rclavicle -5.12694e-014 3.14577e-014
rhumerus -74.2711 24.657 -96.6255
rradius 109.206
rwrist -47.9532
rhand -3.72552 -15.0536
rfingers 7.12502
rthumb 22.0175 -43.8204
lclavicle -5.12694e-014 3.14577e-014
lhumerus -0.15644 -19.0108 71.4723
lradius 36.7896
lwrist -28.4134
lhand -19.4311 26.9156
lfingers 7.12502
lthumb 6.88898 56.7835
rfemur 16.5429 -2.29569 13.5246
rtibia 29.9309
rfoot -25.889 -33.7674
rtoes -25.9557
lfemur -71.8373 35.4592 -11.5768
ltibia 83.2743
lfoot -14.1593 -3.61832
ltoes -4.37079
210
root -0.0931716 13.5945 -30.3172 11.5134 -25.7613 -13.4507
lowerback 6.41858 0.313036 4.38777
upperback -2.20971 1.05399 5.05815
thorax -5.94437 0.444524 2.70959
lowerneck -5.22946 -1.23487 -4.04232
upperneck 9.57161 -1.70097 3.8971
head 4.17852 -0.816917 1.94921
rclavicle 2.13165e-014 1.39398e-014
rhumerus -74.2784 24.5734 -96.5993
rradius 109.208
rwrist -47.958
rhand -3.67623 -15.0377
rfingers 7.12502
rthumb 22.0648 -43.7989
lclavicle 2.13165e-014 1.39398e-014
lhumerus -0.114699 -18.9638 71.4865
lradius 36.7478
lwrist -28.4588
lhand -19.423 26.918
lfingers 7.12502
lthumb 6.89684 56.7856
rfemur 16.5055 -2.28266 13.5389
rtibia 29.9398
rfoot -25.8543 -33.8289
rtoes -25.5233
lfemur -71.8013 35.4413 -11.499
ltibia 83.2675
lfoot -14.1822 -3.53861
ltoes -4.60334
211
root -0.0940282 13.5946 -30.3177 11.5284 -25.7971 -13.4606
lowerback 6.43374 0.34069 4.43293
upperback -2.21255 1.09596 5.0513
thorax -5.95588 0.463257 2.6723
lowerneck -5.17385 -0.802776 -3.81231
upperneck 9.51206 -1.1347 3.84196
head 4.11436 -0.531598 1.9167
rclavicle 2.93083e-014 8.34896e-015
rhumerus -74.2965 24.4719 -96.5651
rradius 109.215
rwrist -47.963
rhand -3.61359 -15.0298
rfingers 7.12502
rthumb 22.125 -43.7839
lclavicle 2.93083e-014 8.34896e-015
lhumerus -0.0835789 -18.9229 71.5108
lradius 36.7279
lwrist -28.4918
lhand -19.412 26.9168
lfingers 7.12502
lthumb 6.90743 56.7841
rfemur 16.4575 -2.26128 13.5486
rtibia 29.9625
rfoot -25.8147 -33.9071
rtoes -25.0402
lfemur -71.7594 35.4114 -11.4225
ltibia 83.2593
lfoot -14.2105 -3.40468
ltoes -4.88862
212
root -0.0949543 13.5944 -30.3186 11.5412 -25.8338 -13.4589
lowerback 6.45873 0.368575 4.46682
upperback -2.21834 1.13822 5.04236
thorax -5.97621 0.482425 2.63913
lowerneck -5.11763 -0.390211 -3.60205
upperneck 9.43609 -0.593408 3.79644
head 4.04786 -0.2588 1.8887
rclavicle -6.01044e-014 3.67752e-015
rhumerus -74.3233 24.3652 -96.5294
rradius 109.226
rwrist -47.967
rhand -3.54102 -15.0278
rfingers 7.12502
rthumb 22.1947 -43.7736
lclavicle -6.01044e-014 3.67752e-015
lhumerus -0.0645695 -18.874 71.538
lradius 36.7313
lwrist -28.5078
lhand -19.3892 26.8966
lfingers 7.12502
lthumb 6.92946 56.7632
rfemur 16.3955 -2.23444 13.5511
rtibia 30.0064
rfoot -25.7661 -34.0043
rtoes -24.5285
lfemur -71.7132 35.3638 -11.3481
ltibia 83.253
lfoot -14.2477 -3.20393
ltoes -5.22802
213
root -0.0958545 13.5936 -30.3199 11.5615 -25.8664 -13.4477
lowerback 6.48255 0.395106 4.49797
upperback -2.22639 1.17828 5.02858
thorax -5.99809 0.500499 2.60264
lowerneck -5.0552 -0.00397582 -3.4065
upperneck 9.34182 -0.0858005 3.75005
head 3.97711 -0.00318147 1.86023
rclavicle -3.53122e-014 3.00165e-014
rhumerus -74.3496 24.2524 -96.4948
rradius 109.236
rwrist -47.9663
rhand -3.45708 -15.0273
rfingers 7.12502
rthumb 22.2752 -43.7635
lclavicle -3.53122e-014 3.00165e-014
lhumerus -0.0490343 -18.8255 71.5568
lradius 36.7593
lwrist -28.5
lhand -19.3513 26.8543
lfingers 7.12502
lthumb 6.96606 56.7197
rfemur 16.3084 -2.21127 13.5467
rtibia 30.0784
rfoot -25.7131 -34.1154
rtoes -24.0148
lfemur -71.6777 35.2923 -11.2794
ltibia 83.2521
lfoot -14.2928 -2.92358
ltoes -5.68132
214
root -0.0966393 13.592 -30.3216 11.5867 -25.8939 -13.4285
lowerback 6.50917 0.419381 4.52905
upperback -2.23415 1.21532 5.00972
thorax -6.02102 0.516964 2.56112
lowerneck -4.98923 0.349736 -3.22958
upperneck 9.23179 0.380101 3.70304
head 3.90364 0.23117 1.83185
rclavicle -3.28771e-014 -5.36719e-015
rhumerus -74.3698 24.1366 -96.4611
rradius 109.244
rwrist -47.9596
rhand -3.36538 -15.0262
rfingers 7.12502
rthumb 22.3633 -43.7518
lclavicle -3.28771e-014 -5.36719e-015
lhumerus -0.0325314 -18.7806 71.5635
lradius 36.8103
lwrist -28.4713
lhand -19.299 26.7918
lfingers 7.12502
lthumb 7.01651 56.6555
rfemur 16.1996 -2.1945 13.5345
rtibia 30.1805
rfoot -25.6641 -34.2331
rtoes -23.5427
lfemur -71.6509 35.1962 -11.2134
ltibia 83.2593
lfoot -14.3525 -2.56659
ltoes -6.26363
215
root -0.0971067 13.5894 -30.3237 11.6137 -25.9156 -13.4071
lowerback 6.54688 0.439433 4.5678
upperback -2.23851 1.24779 4.9853
thorax -6.04631 0.530752 2.50989
lowerneck -4.92473 0.672953 -3.05663
upperneck 9.1094 0.807345 3.63888
head 3.82913 0.445589 1.7957
rclavicle -4.16485e-014 -2.61899e-014
rhumerus -74.3772 24.0244 -96.4342
rradius 109.246
rwrist -47.947
rhand -3.27041 -15.0253
rfingers 7.12502
rthumb 22.4544 -43.74
lclavicle -4.16485e-014 -2.61899e-014
lhumerus -0.0116088 -18.7441 71.5496
lradius 36.8841
lwrist -28.4234
lhand -19.2388 26.718
lfingers 7.12502
lthumb 7.07464 56.5797
rfemur 16.0765 -2.18761 13.5163
rtibia 30.3117
rfoot -25.6455 -34.3366
rtoes -23.1269
lfemur -71.629 35.0772 -11.142
ltibia 83.2784
lfoot -14.4325 -2.14003
ltoes -6.9771
